<svg version="1.1"
  xmlns="http://www.w3.org/2000/svg"
  xmlns:xlink="http://www.w3.org/1999/xlink" x="0px" y="0px" viewBox="0 0 1000 1000" enable-background="new 0 0 1000 1000" xml:space="preserve">
  <g>
    <path d="M414.6,514.7h-53.3l-11,35.5h-34.3l55.1-164.7h33.7l55.1,164.7h-34.3L414.6,514.7L414.6,514.7z
    M369.3,489h37.3l-18.4-58.2h-0.6L369.3,489z
    M508.9,490.2v59.4h-33.1v-164h63c19,0,33.7,4.9,44.7,14.7c11,9.8,16.5,22,16.5,38c0,15.9-5.5,28.2-16.5,38c-11,9.8-25.7,14.1-44.7,14.1H508.9L508.9,490.2z
    M508.9,465.1h30c9.2,0,15.9-2.4,20.8-7.3c4.9-4.9,7.3-11.6,7.3-19c0-8-2.4-14.7-7.3-19.6c-4.9-4.9-11.6-8-20.8-8h-30V465.1L508.9,465.1z
    M658.2,550.2h-33.1V385.5h33.1V550.2z
    M990,520.2c0,96.1-78.4,174.5-174.5,174.5H637.4c-11,0-19.6-8.6-19.6-19.6c0-11,8.6-19.6,19.6-19.6h178.1c74.7,0,135.3-60.6,135.3-135.3c0-74.1-60.6-134.7-134.7-135.3c-0.6,0-0.6,0-1.2,0c-5.5,0-11-2.4-15.3-6.7c-3.7-4.3-5.5-9.8-4.9-15.3c1.2-10.4,1.8-19,1.8-26.9c0-58.2-22.7-113.2-63.7-154.3S636.8,118,578.7,118c-45.3,0-88.8,14.1-126.1,40.4c-36.1,25.7-63,61.2-79,102.8c-2.4,6.1-8,11-14.1,12.2c-6.7,1.2-13.5-0.6-18.4-5.5c-18.4-18.4-42.8-28.8-69.2-28.8c-53.9,0-97.9,44.1-97.9,97.9c0,0,0,1.2,0,1.8c0,0.6,0,1.8,0,2.4c0.6,9.2-5.5,17.1-14.7,19.6c-31.2,8.6-59.4,27.5-79,53.3c-20.2,26.3-31.2,58.2-31.2,91.8c0,82.6,67.3,150,150,150h163.4c11,0,19.6,8.6,19.6,19.6s-8.6,19.6-19.6,19.6H199.8C95.1,695.3,10,610.2,10,505.5c0-42.8,13.5-82.6,39.8-116.3c22-28.2,52-50.2,85.1-62.4c4.9-71,64.3-127.3,137.1-127.3c27.5,0,53.3,8,75.3,22.6c19-38.6,47.1-71,82-96.1c43.5-31.2,94.9-47.1,148.7-47.1c68.6,0,133.4,26.9,182.4,75.3c49,49,75.3,113.2,75.3,182.4c0,3.7,0,7.3,0,11C922.1,356.8,990,430.8,990,520.2L990,520.2L990,520.2z
    M611.7,750.4c-3.7,3.7-8.6,5.5-14.1,5.5c-4.9,0-9.8-1.8-14.1-5.5l-64.3-64.3l0,0v211.2c0,11-8.6,23.9-19,23.9c-11,0-20.2-12.9-20.2-23.9V686.1l0,0l-64.3,64.3c-8,8-20.2,8-27.5,0c-8-8-8-20.2,0-27.5l97.9-97.9c8-8,20.2-8,27.5,0l97.9,97.9C619.1,730.2,619.1,742.4,611.7,750.4L611.7,750.4L611.7,750.4z" fill="currentColor" />
  </g>
</svg>
