<svg xmlns="http://www.w3.org/2000/svg" viewBox="0 0 48 48"><path fill="#ffe500" d="M40.8 28.4C43.5 18 38.1 7 28.2 2.7c-2.6-1.1-5.4-1.7-8-1.8-.9 0-1.4 1-.8 1.7 4.5 4.7 6.8 11 5.8 17.8-.9 3.6-6.2 2.7-8 4.4-1.9 1.8 4.2 5.1 4.2 5.1-3.3 4.7-8.5 8.2-14.1 9.4-.9.2-1.1 1.3-.3 1.8 1.7 1.2 3.6 2.1 5.6 2.8 12 3.9 24.9-3.1 28.2-15.5z"/><ellipse cx="24" cy="45.6" fill="#45413c" opacity=".15" rx="11.5" ry="1.5"/><path fill="#fff48c" d="M18.1 27.6c2.3-.7 5.7-.8 6.4-3.6.1-.9.2-1.7.2-2.6-1.6 2.4-5.9 1.8-7.6 3.4-.8.8-.1 1.9 1 2.8zM28.2 2.7c-2.6-1.1-5.4-1.7-8-1.8-.9 0-1.4 1-.8 1.7.6.7 1.2 1.3 1.7 2 9.4 1 17.2 8 19.2 17.4.5 2.3.6 4.6.3 6.8 0-.1.1-.3.1-.4C43.5 18 38.1 7 28.2 2.7zM7 41.1c.6.4 1.3.8 2 1.2 3.4-1.1 8.1-5.3 10.4-7.4.7-.6.6-1.7-.2-2.2-3.2 3.3-7.3 5.8-11.8 6.7-.9 0-1.2 1.2-.4 1.7z"/><path fill="none" stroke="#45413c" stroke-linecap="round" stroke-linejoin="round" stroke-miterlimit="10" d="M40.8 28.4C43.5 18 38.1 7 28.2 2.7c-2.6-1.1-5.4-1.7-8-1.8-.9 0-1.4 1-.8 1.7 4.5 4.7 6.8 11 5.8 17.8-.9 3.6-6.2 2.7-8 4.4-1.9 1.8 4.2 5.1 4.2 5.1-3.3 4.7-8.5 8.2-14.1 9.4-.9.2-1.1 1.3-.3 1.8 1.7 1.2 3.6 2.1 5.6 2.8 12 3.9 24.9-3.1 28.2-15.5zM21.4 29.9c1.9 1.1 3.4 1.4 3.8-.4"/><circle cx="30.3" cy="23.5" r="1.1" fill="#45413c" stroke="#45413c" stroke-miterlimit="10" transform="rotate(-71.893 30.32 23.481)"/><circle cx="32.1" cy="33.6" r="1.3" fill="#fffacf" transform="rotate(-71.899 32.132 33.616)"/><path fill="none" stroke="#45413c" stroke-linecap="round" stroke-linejoin="round" stroke-miterlimit="10" d="M17.9 33.9s3.4 3.6 8.3 2.3M26.9 33.9s-1 1-.7 2.2c.4 1.5 1.9 1.7 1.9 1.7"/></svg>